Coordinates
version=1
nRows=60
nColumns=12
inDegrees=yes

Units are S.I. units (second, meters, Newtons, ...)
Angles are in degrees

endheader
time	SC_y	SC_z	SC_x	AC_y	AC_z	AC_x	GH_y	GH_z	GH_yy	EL_x	PS_y
       0.0              -37.09          7.668          82.87           39.7         -18.98          18.85          90.84          81.82          47.59          54.61          12.22
   0.01373              -37.09          7.669          82.87           39.7         -18.97          18.84           90.8          81.81          47.58          54.61          12.23
   0.02747              -37.09           7.67          82.87           39.7         -18.97          18.83          90.77          81.81          47.56          54.61          12.24
    0.0412              -37.09          7.672          82.86           39.7         -18.96          18.83          90.73          81.81          47.55          54.61          12.25
   0.05494               -37.1          7.673          82.86           39.7         -18.96          18.82           90.7           81.8          47.53          54.61          12.27
   0.06867               -37.1          7.675          82.86          39.71         -18.95          18.82          90.65           81.8          47.52          54.61          12.28
   0.08241               -37.1          7.676          82.85          39.71         -18.95          18.81          90.61          81.79           47.5          54.61           12.3
   0.09614              -37.11          7.678          82.85          39.71         -18.94           18.8          90.56          81.79          47.48          54.61          12.32
    0.1099              -37.11           7.68          82.84          39.71         -18.94          18.79          90.51          81.78          47.47          54.61          12.33
    0.1236              -37.12          7.682          82.84          39.72         -18.93          18.78          90.46          81.78          47.44          54.61          12.35
    0.1373              -37.12          7.684          82.83          39.72         -18.92          18.77           90.4          81.77          47.42          54.61          12.37
    0.1511              -37.13          7.686          82.83          39.72         -18.92          18.76          90.34          81.77           47.4          54.61           12.4
    0.1648              -37.13          7.689          82.82          39.72         -18.91          18.75          90.27          81.76          47.37          54.61          12.42
    0.1786              -37.14          7.692          82.81          39.73          -18.9          18.74           90.2          81.75          47.35          54.61          12.45
    0.1923              -37.15          7.695           82.8          39.73         -18.89          18.73          90.12          81.74          47.32          54.61          12.47
     0.206              -37.15          7.698           82.8          39.74         -18.88          18.71          90.03          81.74          47.28          54.61           12.5
    0.2198              -37.16          7.701          82.79          39.74         -18.87           18.7          89.94          81.73          47.25          54.61          12.54
    0.2335              -37.17          7.705          82.78          39.75         -18.86          18.68          89.84          81.72          47.21          54.61          12.57
    0.2472              -37.18          7.709          82.77          39.75         -18.84          18.66          89.73          81.71          47.17          54.61          12.61
     0.261              -37.19          7.714          82.76          39.76         -18.83          18.64          89.61          81.69          47.12          54.61          12.66
    0.2747               -37.2          7.719          82.74          39.76         -18.81          18.62          89.48          81.68          47.07          54.61           12.7
    0.2884              -37.21          7.724          82.73          39.77         -18.79          18.59          89.33          81.67          47.02          54.61          12.76
    0.3022              -37.22           7.73          82.71          39.78         -18.77          18.57          89.17          81.65          46.96          54.61          12.81
    0.3159              -37.24          7.737          82.69          39.79         -18.75          18.54          88.99          81.63          46.89          54.61          12.88
    0.3296              -37.26          7.744          82.68           39.8         -18.73           18.5          88.79          81.61          46.81          54.62          12.95
    0.3434              -37.27          7.752          82.65          39.81          -18.7          18.47          88.57          81.59          46.73          54.62          13.03
    0.3571              -37.29          7.762          82.63          39.82         -18.67          18.43          88.32          81.56          46.64          54.62          13.12
    0.3708              -37.32          7.772           82.6          39.83         -18.64          18.38          88.04          81.54          46.53          54.62          13.22
    0.3846              -37.34          7.784          82.57          39.85          -18.6          18.33          87.73           81.5          46.41          54.62          13.33
    0.3983              -37.37          7.797          82.54          39.86         -18.56          18.27          87.37          81.47          46.28          54.62          13.46
     0.412              -37.41          7.813           82.5          39.88         -18.51           18.2          86.96          81.43          46.12          54.62          13.61
    0.4258              -37.45           7.83          82.45          39.91         -18.45          18.12          86.49          81.38          45.94          54.63          13.77
    0.4395              -37.49           7.85           82.4          39.93         -18.39          18.03          85.95          81.33          45.74          54.63          13.97
    0.4532              -37.54          7.874          82.34          39.96         -18.31          17.93          85.32          81.26           45.5          54.63          14.19
     0.467               -37.6          7.901          82.26           40.0         -18.22           17.8          84.58          81.19          45.22          54.63          14.46
    0.4807              -37.68          7.934          82.18          40.04         -18.12          17.66          83.71           81.1           44.9          54.64          14.77
    0.4945              -37.76          7.972          82.08          40.09         -17.99          17.49          82.68           81.0           44.5          54.64          15.14
    0.5082              -37.86          8.019          81.96          40.15         -17.84          17.28          81.44          80.88          44.04          54.65          15.58
    0.5219              -37.99          8.075          81.81          40.22         -17.66          17.03          79.95          80.73          43.47          54.65          16.12
    0.5357              -38.14          8.143          81.63          40.31         -17.44          16.73          78.12          80.54          42.78          54.66          16.77
    0.5494              -38.33          8.227          81.41          40.42         -17.17          16.35          75.86          80.32          41.93          54.67          17.58
    0.5631              -38.56          8.332          81.14          40.56         -16.83          15.88          73.05          80.03          40.86          54.68          18.58
    0.5769              -38.85          8.465          80.79          40.73         -16.41          15.29           69.5          79.68          39.52          54.69          19.85
    0.5906              -39.22          8.633          80.35          40.94         -15.86          14.54           65.0          79.23          37.82          54.71          21.47
    0.6043               -39.7          8.849          79.79          41.22         -15.17          13.58          59.23          78.65          35.64          54.74          23.53
    0.6181              -40.31          9.125          79.07          41.58         -14.28          12.34          51.82          77.91          32.84          54.77          26.18
    0.6318               -41.1          9.478          78.15          42.03         -13.14          10.77          42.37          76.96          29.27           54.8          29.56
    0.6455              -42.08          9.922          76.98          42.61         -11.71          8.787          30.48          75.77          24.77          54.85          33.82
    0.6593              -43.28          10.46          75.57          43.31         -9.963          6.373          15.99          74.32           19.3          54.91           39.0
     0.673              -44.67          11.09          73.93          44.12         -7.941          3.574        -0.8045          72.63          12.95          54.98          45.02
    0.6867              -46.17          11.77          72.16          44.99         -5.752         0.5436         -18.99          70.81          6.075          55.05          51.52
    0.7005              -47.68          12.45          70.38          45.87         -3.562         -2.487         -37.17          68.99        -0.7987          55.13          58.03
    0.7142              -49.07          13.08          68.74          46.68          -1.54         -5.286         -53.97           67.3         -7.147          55.19          64.04
    0.7279              -50.27          13.62          67.33          47.38         0.2042           -7.7         -68.46          65.85         -12.62          55.25          69.23
    0.7417              -51.25          14.06          66.17          47.95          1.636         -9.681         -80.35          64.66         -17.12           55.3          73.48
    0.7554              -52.03          14.42          65.25          48.41          2.774         -11.26          -89.8          63.71         -20.69          55.34          76.87
    0.7691              -52.65          14.69          64.53          48.76          3.665         -12.49         -97.21          62.97         -23.49          55.37          79.52
    0.7829              -53.12          14.91          63.96          49.04           4.36         -13.45         -103.0          62.39         -25.67          55.39          81.58
    0.7966               -53.5          15.08          63.52          49.26          4.903          -14.2         -107.5          61.94         -27.37          55.41          83.19
    0.8104              -53.79          15.21          63.18          49.43           5.33         -14.79         -111.0          61.59         -28.71          55.43          84.46
